<svg aria-hidden="true" style="width:0;height:0;position:absolute;overflow:hidden" xmlns="http://www.w3.org/2000/svg"><defs><symbol id="icon-search" viewBox="0 0 32 32"><path d="M20 .005c-6.627 0-12 5.373-12 12 0 2.026.507 3.933 1.395 5.608l-8.344 8.342.007.006A3.515 3.515 0 0 0 0 28.477a3.529 3.529 0 0 0 3.529 3.529c.985 0 1.874-.406 2.515-1.059l-.002-.002 8.341-8.34c1.676.891 3.586 1.4 5.617 1.4 6.627 0 12-5.373 12-12s-5.373-12-12-12zM4.795 29.697a1.75 1.75 0 0 1-1.266.543 1.764 1.764 0 0 1-1.765-1.764c0-.498.21-.943.543-1.266l-.009-.008 8.066-8.066a12.101 12.101 0 0 0 2.494 2.498l-8.063 8.063zM20 22.006c-5.522 0-10-4.479-10-10s4.478-10 10-10c5.521 0 10 4.478 10 10s-4.479 10-10 10zm0-17.001a.5.5 0 0 1 0 1 6 6 0 0 0-6 6 .5.5 0 0 1-1 0 7 7 0 0 1 7-7z"/></symbol><symbol id="icon-play_circle" viewBox="0 0 24 24"><path d="m9.984 16.5 6-4.5-6-4.5v9zM12 2.016q4.125 0 7.055 2.93t2.93 7.055-2.93 7.055T12 21.986t-7.055-2.93-2.93-7.055 2.93-7.055T12 2.016z"/></symbol><symbol id="icon-arrow-up-right" viewBox="0 0 31 32"><path fill="none" stroke="#fff" style="stroke:var(--color1,#fff)" stroke-linejoin="round" stroke-linecap="round" stroke-width="1.92" d="m8.96 22.779 12.8-12.8M8.96 9.979h12.8v12.8"/></symbol><symbol id="icon-star" viewBox="0 0 31 32"><path fill="#f9b043" style="fill:var(--color1,#f9b043)" d="M14.088 6.533c.52-1.054 2.024-1.054 2.544 0l2.353 4.767a1.42 1.42 0 0 0 1.067.776l5.265.77c1.163.17 1.627 1.6.785 2.42l-3.807 3.708a1.418 1.418 0 0 0-.408 1.256l.898 5.237c.199 1.159-1.018 2.043-2.059 1.496l-4.705-2.475a1.422 1.422 0 0 0-1.321 0l-4.705 2.475c-1.041.547-2.257-.337-2.059-1.496l.898-5.237a1.42 1.42 0 0 0-.408-1.256l-3.807-3.708c-.842-.82-.379-2.25.785-2.42l5.265-.77a1.417 1.417 0 0 0 1.067-.776l2.353-4.767z"/></symbol><symbol id="icon-arrow-right" viewBox="0 0 31 32"><path fill="none" stroke="#fff" style="stroke:var(--color1,#fff)" stroke-linejoin="round" stroke-linecap="round" stroke-width="1.28" d="M6.4 16.273h17.92M15.36 7.313l8.96 8.96-8.96 8.96"/></symbol><symbol id="icon-cards-arrow-right" viewBox="0 0 32 32"><path fill="none" stroke="#fff" style="stroke:var(--color1,#fff)" stroke-linejoin="round" stroke-linecap="square" stroke-width=".8" d="M9.333 16H22.4"/><path fill="none" stroke="#fff" style="stroke:var(--color1,#fff)" stroke-linecap="square" stroke-width=".8" d="M16 9.333 22.667 16 16 22.667"/></symbol><symbol id="icon-cards-arrow-left" viewBox="0 0 32 32"><path fill="none" stroke="#fff" style="stroke:var(--color1,#fff)" stroke-linejoin="round" stroke-linecap="square" stroke-width=".8" d="M22.667 16H9.6"/><path fill="none" stroke="#fff" style="stroke:var(--color1,#fff)" stroke-linecap="square" stroke-width=".8" d="M16 9.333 9.333 16 16 22.667"/></symbol><symbol id="icon-chek-mark" viewBox="0 0 33 32"><path fill="#b1454a" style="fill:var(--color1,#b1454a)" d="M32.643 16c0 8.837-7.163 16-16 16s-16-7.163-16-16 7.163-16 16-16 16 7.163 16 16z"/><path fill="none" stroke="#fff" style="stroke:var(--color2,#fff)" stroke-linejoin="round" stroke-linecap="round" stroke-width="2" d="m23.755 10.667-9.778 9.778-4.444-4.444"/></symbol><symbol id="icon-instagram" viewBox="0 0 32 32"><path fill="#121212" style="fill:var(--color1,#121212)" d="M16 0c8.8 0 16 7.2 16 16s-7.2 16-16 16S0 24.8 0 16 7.2 0 16 0z"/><path fill="#fff" style="fill:var(--color2,#fff)" d="M19.525 8.381h-7.202c-2.198 0-3.942 1.829-3.942 4.114v7.01c0 2.21 1.744 4.038 4.018 4.114h7.202c2.198 0 4.018-1.829 4.018-4.114v-7.01c-.076-2.286-1.82-4.114-4.094-4.114zm2.654 11.048c0 1.524-1.213 2.819-2.805 2.819h-6.899c-1.516 0-2.805-1.295-2.729-2.819v-6.857c0-1.524 1.213-2.819 2.729-2.819h6.899c1.516 0 2.805 1.295 2.805 2.819v6.857z"/><path fill="#fff" style="fill:var(--color2,#fff)" d="M16.075 12.193c-2.09-.075-3.882 1.643-3.882 3.734-.075 2.091 1.642 3.883 3.732 3.883s3.882-1.643 3.882-3.734v-.075c.075-2.091-1.642-3.808-3.733-3.808zm0 6.272a2.538 2.538 0 0 1-2.538-2.39c0-1.344 1.045-2.464 2.389-2.539s2.463 1.046 2.538 2.39v.075c.075 1.344-1.045 2.464-2.389 2.464zM19.81 10.667c.416 0 .762.318.762.762s-.346.762-.762.762c-.416 0-.762-.318-.762-.762s.346-.762.762-.762z"/></symbol><symbol id="icon-twitter" viewBox="0 0 32 32"><path fill="#121212" style="fill:var(--color1,#121212)" d="M32 16c0 8.837-7.163 16-16 16S0 24.837 0 16 7.163 0 16 0s16 7.163 16 16z"/><path fill="#fff" style="fill:var(--color2,#fff)" d="M13.695 22.857c5.463 0 8.45-4.69 8.45-8.756 0-.133-.003-.266-.008-.398a6.171 6.171 0 0 0 1.482-1.594 5.783 5.783 0 0 1-1.706.485 3.073 3.073 0 0 0 1.306-1.702 5.812 5.812 0 0 1-1.886.747 2.92 2.92 0 0 0-2.168-.972c-1.64 0-2.97 1.378-2.97 3.077 0 .242.026.476.077.702-2.468-.129-4.657-1.353-6.122-3.215a3.156 3.156 0 0 0-.402 1.547c0 1.068.524 2.01 1.322 2.562a2.871 2.871 0 0 1-1.345-.385v.039c0 1.49 1.024 2.735 2.383 3.017a2.897 2.897 0 0 1-1.341.052c.378 1.223 1.475 2.113 2.775 2.138a5.826 5.826 0 0 1-4.398 1.274 8.194 8.194 0 0 0 4.553 1.382z"/></symbol><symbol id="icon-facebook" viewBox="0 0 32 32"><path fill="#121212" style="fill:var(--color1,#121212)" d="M16 32c8.837 0 16-7.163 16-16S24.837 0 16 0 0 7.163 0 16s7.163 16 16 16z"/><path fill="#fff" style="fill:var(--color2,#fff)" d="M17.306 25.143v-7.788h2.612l.653-3.245h-3.265v-1.298c0-1.298.654-1.947 1.959-1.947h1.306V7.62h-2.612c-2.4 0-3.918 1.87-3.918 4.543v1.947h-2.612v3.245h2.612v7.788h3.265z"/></symbol><symbol id="icon-close" viewBox="0 0 24 24"><path d="M12 20.016q3.281 0 5.648-2.367t2.367-5.648-2.367-5.648T12 3.986 6.352 6.353t-2.367 5.648 2.367 5.648T12 20.016zm0-18q4.125 0 7.055 2.93t2.93 7.055-2.93 7.055T12 21.986t-7.055-2.93-2.93-7.055 2.93-7.055T12 2.016zm2.578 6 1.406 1.406L13.406 12l2.578 2.578-1.406 1.406L12 13.406l-2.578 2.578-1.406-1.406L10.594 12 8.016 9.422l1.406-1.406L12 10.594z"/></symbol></defs></svg>