
<svg aria-hidden="true" style="position: absolute; width: 0; height: 0; overflow: hidden;" version="1.1" xmlns="http://www.w3.org/2000/svg" xmlns:xlink="http://www.w3.org/1999/xlink">
<defs>
<symbol id="icon-search" viewBox="0 0 32 32">
<path d="M20 0.005c-6.627 0-12 5.373-12 12 0 2.026 0.507 3.933 1.395 5.608l-8.344 8.342 0.007 0.006c-0.652 0.641-1.058 1.529-1.058 2.516 0 1.949 1.58 3.529 3.529 3.529 0.985 0 1.874-0.406 2.515-1.059l-0.002-0.002 8.341-8.34c1.676 0.891 3.586 1.4 5.617 1.4 6.627 0 12-5.373 12-12s-5.373-12-12-12zM4.795 29.697c-0.322 0.334-0.768 0.543-1.266 0.543-0.975 0-1.765-0.789-1.765-1.764 0-0.498 0.21-0.943 0.543-1.266l-0.009-0.008 8.066-8.066c0.705 0.951 1.545 1.791 2.494 2.498l-8.063 8.063zM20 22.006c-5.522 0-10-4.479-10-10s4.478-10 10-10c5.521 0 10 4.478 10 10s-4.479 10-10 10zM20 5.005c0.275 0 0.5 0.224 0.5 0.5s-0.225 0.5-0.5 0.5c-3.314 0-6 2.687-6 6 0 0.276-0.224 0.5-0.5 0.5s-0.5-0.224-0.5-0.5c0-3.866 3.133-7 7-7z"></path>
</symbol>
<symbol id="icon-play_circle" viewBox="0 0 24 24">
<path d="M9.984 16.5l6-4.5-6-4.5v9zM12 2.016q4.125 0 7.055 2.93t2.93 7.055-2.93 7.055-7.055 2.93-7.055-2.93-2.93-7.055 2.93-7.055 7.055-2.93z"></path>
</symbol>
<symbol id="icon-arrow-up-right" viewBox="0 0 31 32">
<path fill="none" stroke="#fff" style="stroke: var(--color1, #fff)" stroke-linejoin="round" stroke-linecap="round" stroke-miterlimit="4" stroke-width="1.92" d="M8.96 22.779l12.8-12.8"></path>
<path fill="none" stroke="#fff" style="stroke: var(--color1, #fff)" stroke-linejoin="round" stroke-linecap="round" stroke-miterlimit="4" stroke-width="1.92" d="M8.96 9.979h12.8v12.8"></path>
</symbol>
<symbol id="icon-star" viewBox="0 0 31 32">
<path fill="#f9b043" style="fill: var(--color1, #f9b043)" d="M14.088 6.533c0.52-1.054 2.024-1.054 2.544 0l2.353 4.767c0.206 0.418 0.605 0.708 1.067 0.776l5.265 0.77c1.163 0.17 1.627 1.6 0.785 2.42l-3.807 3.708c-0.335 0.326-0.487 0.796-0.408 1.256l0.898 5.237c0.199 1.159-1.018 2.043-2.059 1.496l-4.705-2.475c-0.413-0.217-0.907-0.217-1.321 0l-4.705 2.475c-1.041 0.547-2.257-0.337-2.059-1.496l0.898-5.237c0.079-0.46-0.074-0.93-0.408-1.256l-3.807-3.708c-0.842-0.82-0.379-2.25 0.785-2.42l5.265-0.77c0.462-0.067 0.861-0.358 1.067-0.776l2.353-4.767z"></path>
</symbol>
<symbol id="icon-arrow-right" viewBox="0 0 31 32">
<path fill="none" stroke="#fff" style="stroke: var(--color1, #fff)" stroke-linejoin="round" stroke-linecap="round" stroke-miterlimit="4" stroke-width="1.28" d="M6.4 16.273h17.92"></path>
<path fill="none" stroke="#fff" style="stroke: var(--color1, #fff)" stroke-linejoin="round" stroke-linecap="round" stroke-miterlimit="4" stroke-width="1.28" d="M15.36 7.313l8.96 8.96-8.96 8.96"></path>
</symbol>
<symbol id="icon-cards-arrow-right" viewBox="0 0 32 32">
<path fill="none" stroke="#fff" style="stroke: var(--color1, #fff)" stroke-linejoin="round" stroke-linecap="square" stroke-miterlimit="4" stroke-width="0.8" d="M9.333 16h13.067"></path>
<path fill="none" stroke="#fff" style="stroke: var(--color1, #fff)" stroke-linejoin="miter" stroke-linecap="square" stroke-miterlimit="4" stroke-width="0.8" d="M16 9.333l6.667 6.667-6.667 6.667"></path>
</symbol>
<symbol id="icon-cards-arrow-left" viewBox="0 0 32 32">
<path fill="none" stroke="#fff" style="stroke: var(--color1, #fff)" stroke-linejoin="round" stroke-linecap="square" stroke-miterlimit="4" stroke-width="0.8" d="M22.667 16h-13.067"></path>
<path fill="none" stroke="#fff" style="stroke: var(--color1, #fff)" stroke-linejoin="miter" stroke-linecap="square" stroke-miterlimit="4" stroke-width="0.8" d="M16 9.333l-6.667 6.667 6.667 6.667"></path>
</symbol>
<symbol id="icon-chek-mark" viewBox="0 0 33 32">
<path fill="#b1454a" style="fill: var(--color1, #b1454a)" d="M32.643 16c0 8.837-7.163 16-16 16s-16-7.163-16-16c0-8.837 7.163-16 16-16s16 7.163 16 16z"></path>
<path fill="none" stroke="#fff" style="stroke: var(--color2, #fff)" stroke-linejoin="round" stroke-linecap="round" stroke-miterlimit="4" stroke-width="2" d="M23.755 10.667l-9.778 9.778-4.444-4.444"></path>
</symbol>
<symbol id="icon-instagram" viewBox="0 0 32 32">
<path fill="#121212" style="fill: var(--color1, #121212)" d="M16 0c8.8 0 16 7.2 16 16s-7.2 16-16 16c-8.8 0-16-7.2-16-16s7.2-16 16-16z"></path>
<path fill="#fff" style="fill: var(--color2, #fff)" d="M19.525 8.381h-7.202c-2.198 0-3.942 1.829-3.942 4.114v7.010c0 2.21 1.744 4.038 4.018 4.114h7.202c2.198 0 4.018-1.829 4.018-4.114v-7.010c-0.076-2.286-1.82-4.114-4.094-4.114zM22.179 19.429c0 1.524-1.213 2.819-2.805 2.819h-6.899c-1.516 0-2.805-1.295-2.729-2.819v-6.857c0-1.524 1.213-2.819 2.729-2.819h6.899c1.516 0 2.805 1.295 2.805 2.819v6.857z"></path>
<path fill="#fff" style="fill: var(--color2, #fff)" d="M16.075 12.193c-2.090-0.075-3.882 1.643-3.882 3.734-0.075 2.091 1.642 3.883 3.732 3.883s3.882-1.643 3.882-3.734v-0.075c0.075-2.091-1.642-3.808-3.733-3.808zM16.075 18.465c-1.344 0-2.463-1.045-2.538-2.39 0-1.344 1.045-2.464 2.389-2.539s2.463 1.046 2.538 2.39v0.075c0.075 1.344-1.045 2.464-2.389 2.464z"></path>
<path fill="#fff" style="fill: var(--color2, #fff)" d="M19.81 10.667c0.416 0 0.762 0.318 0.762 0.762s-0.346 0.762-0.762 0.762c-0.416 0-0.762-0.318-0.762-0.762s0.346-0.762 0.762-0.762z"></path>
</symbol>
<symbol id="icon-twitter" viewBox="0 0 32 32">
<path fill="#121212" style="fill: var(--color1, #121212)" d="M32 16c0 8.837-7.163 16-16 16s-16-7.163-16-16c0-8.837 7.163-16 16-16s16 7.163 16 16z"></path>
<path fill="#fff" style="fill: var(--color2, #fff)" d="M13.695 22.857c5.463 0 8.45-4.69 8.45-8.756 0-0.133-0.003-0.266-0.008-0.398 0.58-0.434 1.084-0.977 1.482-1.594-0.532 0.245-1.105 0.41-1.706 0.485 0.613-0.381 1.084-0.984 1.306-1.702-0.574 0.353-1.209 0.609-1.886 0.747-0.542-0.598-1.314-0.972-2.168-0.972-1.64 0-2.97 1.378-2.97 3.077 0 0.242 0.026 0.476 0.077 0.702-2.468-0.129-4.657-1.353-6.122-3.215-0.255 0.455-0.402 0.983-0.402 1.547 0 1.068 0.524 2.010 1.322 2.562-0.487-0.016-0.945-0.154-1.345-0.385-0 0.013-0 0.026-0 0.039 0 1.49 1.024 2.735 2.383 3.017-0.25 0.070-0.512 0.108-0.783 0.108-0.191 0-0.377-0.020-0.558-0.056 0.378 1.223 1.475 2.113 2.775 2.138-1.017 0.826-2.297 1.317-3.689 1.317-0.239 0-0.476-0.014-0.709-0.043 1.314 0.873 2.875 1.382 4.553 1.382z"></path>
</symbol>
<symbol id="icon-facebook" viewBox="0 0 32 32">
<path fill="#121212" style="fill: var(--color1, #121212)" d="M16 32c8.837 0 16-7.163 16-16s-7.163-16-16-16c-8.837 0-16 7.163-16 16s7.163 16 16 16z"></path>
<path fill="#fff" style="fill: var(--color2, #fff)" d="M17.306 25.143v-7.788h2.612l0.653-3.245h-3.265v-1.298c0-1.298 0.654-1.947 1.959-1.947h1.306v-3.245c-0.653 0-1.463 0-2.612 0-2.4 0-3.918 1.87-3.918 4.543v1.947h-2.612v3.245h2.612v7.788h3.265z"></path>
</symbol>
<symbol id="icon-close" viewBox="0 0 24 24">
<path d="M12 20.016q3.281 0 5.648-2.367t2.367-5.648-2.367-5.648-5.648-2.367-5.648 2.367-2.367 5.648 2.367 5.648 5.648 2.367zM12 2.016q4.125 0 7.055 2.93t2.93 7.055-2.93 7.055-7.055 2.93-7.055-2.93-2.93-7.055 2.93-7.055 7.055-2.93zM14.578 8.016l1.406 1.406-2.578 2.578 2.578 2.578-1.406 1.406-2.578-2.578-2.578 2.578-1.406-1.406 2.578-2.578-2.578-2.578 1.406-1.406 2.578 2.578z"></path>
</symbol>
</defs>
</svg>